# AST/ASF file generated using VICON BodyLanguage
# -----------------------------------------------
:version 1.10
:name VICON
:units
  mass 1.0
  length 0.45
  angle deg
:documentation
   .ast/.asf automatically generated from VICON data using
   VICON BodyBuilder and BodyLanguage model FoxedUp or BRILLIANT.MOD
:root
   order TX TY TZ RX RY RZ
   axis XYZ
   position 0 0 0  
   orientation 0 0 0 
:bonedata
  begin
     id 1 
     name lhipjoint
     direction 0.707368 -0.647095 0.284426 
     length 2.60678 
     axis 0 0 0  XYZ
  end
  begin
     id 2 
     name lfemur
     direction 0.34202 -0.939693 0  
     length 6.63812  
     axis 0 0 20  XYZ
    dof rx ry rz
    limits (-160.0 20.0)
           (-70.0 70.0)
           (-60.0 70.0)
  end
  begin
     id 3 
     name ltibia
     direction 0.34202 -0.939693 0   
     length 7.51178   
     axis 0 0 20   XYZ
    dof rx
    limits (-10.0 170.0)
  end
  begin
     id 4 
     name lfoot
     direction 0.121251 -0.333133 0.935051   
     length 1.83716   
     axis -90 7.62852e-016 20   XYZ
    dof rx rz
    limits (-45.0 90.0)
           (-70.0 20.0)
  end
  begin
     id 5 
     name ltoes
     direction 1.53611e-011 -4.21962e-011 1   
     length 0.916133   
     axis -90 7.62852e-016 20   XYZ
    dof rx
    limits (-90.0 20.0)
  end
  begin
     id 6 
     name rhipjoint
     direction -0.692419 -0.660507 0.290321   
     length 2.55385  
     axis 0 0 0  XYZ 
  end
  begin
     id 7 
     name rfemur
     direction -0.34202 -0.939693 0   
     length 7.29079   
     axis 0 0 -20   XYZ
    dof rx ry rz
    limits (-160.0 20.0)
           (-70.0 70.0)
           (-70.0 60.0)
  end
  begin
     id 8 
     name rtibia
     direction -0.34202 -0.939693 0   
     length 7.47143   
     axis 0 0 -20   XYZ
    dof rx
    limits (-10.0 170.0)
 end
 begin
     id 9 
     name rfoot
     direction -0.119907 -0.329441 0.936532   
     length 1.79439  
     axis -90 -7.62852e-016 -20   XYZ
    dof rx rz
    limits (-45.0 90.0)
           (-20.0 70.0)
  end
  begin
     id 10 
     name rtoes
     direction -1.53571e-011 -4.21961e-011 1   
     length 0.896039   
     axis -90 -7.62852e-016 -20   XYZ
    dof rx
    limits (-90.0 20.0)
  end
  begin
     id 11 
     name lowerback
     direction 0.0367721 0.992912 -0.113016   
     length 1.73542   
     axis 0 0 0   XYZ
    dof rx ry rz
    limits (-20.0 45.0)
           (-30.0 30.0)
           (-30.0 30.0)
  end
  begin
     id 12 
     name upperback
     direction -0.000314626 0.990678 0.136227   
     length 1.7514   
     axis 0 0 0   XYZ
    dof rx ry rz
    limits (-20.0 45.0)
           (-30.0 30.0)
           (-30.0 30.0)
  end
  begin
     id 13 
     name thorax
     direction -0.0226159 0.981151 0.191917   
     length 1.71471   
     axis 0 0 0   XYZ
    dof rx ry rz
    limits (-20.0 45.0)
           (-30.0 30.0)
           (-30.0 30.0)
  end
  begin
     id 14 
     name lowerneck
     direction 0.0219333 0.998071 0.0580739   
     length 1.65882   
     axis 0 0 0   XYZ
    dof rx ry rz
    limits (-20.0 45.0)
           (-30.0 30.0)
           (-30.0 30.0)
  end
  begin
     id 15 
     name upperneck
     direction 0.0384529 0.980058 -0.194957   
     length 1.6612   
     axis 0 0 0   XYZ
    dof rx ry rz
    limits (-20.0 45.0)
           (-30.0 30.0)
           (-30.0 30.0)
  end
  begin
     id 16
     name head
     direction 0.00592123 0.997421 -0.0715234  
     length 1.68077  
     axis 0 0 0   XYZ
    dof rx ry rz
    limits (-20.0 45.0)
           (-30.0 30.0)
           (-30.0 30.0)
  end
  begin
     id 17 
     name lclavicle
     direction 0.904803 0.417826 0.0821728  
     length 3.42227  
     axis 0 0 0   XYZ
    dof ry rz
    limits (-20.0 10.0)
           (0.0 20.0)
  end
  begin
     id 18 
     name lhumerus
     direction 1 -4.48965e-011 -2.68786e-027   
     length 5.11878   
     axis -180 -30 -90   XYZ
    dof rx ry rz
    limits (-60.0 90.0)
           (-90.0 90.0)
           (-90.0 90.0)
  end
  begin
     id 19
     name lradius
     direction 1 -4.48965e-011 2.61168e-028   
     length 3.59971   
     axis -180 -30 -90   XYZ
    dof rx
    limits (-10.0 170.0)
  end
  begin
     id 20
     name lwrist
     direction 1 -4.48965e-011 1.58672e-027   
     length 1.79985   
     axis -1.65735e-015 90 90   XYZ
    dof ry
    limits (-180.0 0.0)
 end
  begin
     id 21 
     name lhand
     direction 1 -4.48942e-011 3.17344e-027   
     length 0.62877   
     axis -2.02492e-015 90 90   XYZ
    dof rx rz
    limits (-90.0 90.0)
           (-45.0 45.0)
  end
  begin
     id 22 
     name lfingers
     direction 1 -4.49011e-011 6.34687e-027   
     length 0.506931   
     axis -4.04985e-015 90 90   XYZ
    dof rx
    limits (0.0 90.0)
  end
  begin
     id 23
     name lthumb
     direction 0.707107 -6.34982e-011 0.707107   
     length 0.727854   
     axis -90 45 2.85299e-015   XYZ
    dof rx rz
    limits (-45.0 45.0)
           (-45.0 45.0)
  end
  begin
     id 24 
     name rclavicle
     direction -0.945647 0.32488 0.0143075   
     length 3.52737  
     axis 0 0 0   XYZ 
    dof ry rz
    limits (-10.0 20.0)
           (-20.0 0.0)
  end
  begin
     id 25 
     name rhumerus
     direction -1 -4.48962e-011 1.92182e-027  
     length 5.4902   
     axis -180 30 90   XYZ
    dof rx ry rz
    limits (-90.0 60.0)
           (-90.0 90.0)
           (-90.0 90.0)
  end
  begin
     id 26 
     name rradius
     direction -1 -4.48967e-011 -5.97193e-028   
     length 3.20659   
     axis -180 30 90   XYZ
    dof rx
    limits (-10.0 170.0)
  end
  begin
     id 27 
     name rwrist
     direction -1 -4.48964e-011 1.58672e-027   
     length 1.6033   
     axis -1.65735e-015 -90 -90   XYZ
    dof ry
    limits (-180.0 0.0)
  end
  begin
     id 28
     name rhand
     direction -1 -4.49006e-011 3.17344e-027   
     length 0.691885   
     axis -2.02492e-015 -90 -90   XYZ
    dof rx rz
    limits (-90.0 90.0)
           (-45.0 45.0)
  end
  begin
     id 29
     name rfingers
     direction -1 -4.48908e-011 6.34687e-027   
     length 0.557815   
     axis -4.04985e-015 -90 -90   XYZ
    dof rx
    limits (0.0 90.0)
  end
  begin
     id 30
     name rthumb
     direction -0.707107 -6.34999e-011 0.707107   
     length 0.800915   
     axis -90 -45 -2.85299e-015   XYZ
    dof rx rz
    limits (-45.0 45.0)
           (-45.0 45.0)
  end
:hierarchy
  begin
    root lhipjoint rhipjoint lowerback
    lhipjoint lfemur
    lfemur ltibia
    ltibia lfoot
    lfoot ltoes
    rhipjoint rfemur
    rfemur rtibia
    rtibia rfoot
    rfoot rtoes
    lowerback upperback
    upperback thorax
    thorax lowerneck lclavicle rclavicle
    lowerneck upperneck
    upperneck head
    lclavicle lhumerus
    lhumerus lradius
    lradius lwrist
    lwrist lhand lthumb
    lhand lfingers
    rclavicle rhumerus
    rhumerus rradius
    rradius rwrist
    rwrist rhand rthumb
    rhand rfingers
  end

#!OML:ASF I:\Actors\actors\Patient Classification 1\Patient 1\Session 1\Subject1.ASF
:FULLY-SPECIFIED
:DEGREES
1
root 0.624629 17.456 9.10728 10.7537 -3.12533 -9.90812
lowerback 0.652489 1.63851 7.71313
upperback -9.46497 2.84448 1.78771
thorax -10.2223 0.827397 -2.64223
lowerneck -12.7085 -7.48753 -3.2533
upperneck 22.2382 -11.1126 5.2888
head 9.61034 -4.90562 0.991877
rclavicle -2.82274e-014 -2.98177e-014
rhumerus -48.0272 -33.2365 -62.5892
rradius 24.3541
rwrist 47.9951
rhand 4.03269 -29.2528
rfingers 7.12502
rthumb 29.4469 -56.9388
lclavicle -2.82274e-014 -2.98177e-014
lhumerus -48.8735 33.4716 59.4281
lradius 18.7983
lwrist -35.5397
lhand -19.4871 -12.8627
lfingers 7.12502
lthumb 6.83495 17.0069
rfemur -5.59099 24.5407 25.7736
rtibia 1.79403
rfoot -11.0087 -24.8398
rtoes 0.350338
lfemur 6.78857 -52.3808 -12.6995
ltibia -5.04892
lfoot -39.7653 59.7115
ltoes 22.9397
2
root 0.627096 17.4528 9.10552 10.8121 -3.14853 -9.9033
lowerback 0.469982 1.51707 7.68917
upperback -10.1413 2.73143 2.09606
thorax -10.9197 0.750453 -2.28497
lowerneck -9.76204 -7.20636 -4.39137
upperneck 21.6696 -10.6337 5.79099
head 8.93393 -4.81406 1.52353
rclavicle 2.83268e-015 -9.14409e-015
rhumerus -49.23 -31.2925 -62.226
rradius 24.5555
rwrist 47.3384
rhand 3.81327 -29.1692
rfingers 7.12502
rthumb 29.2374 -56.8919
lclavicle 2.83268e-015 -9.14409e-015
lhumerus -50.9947 32.816 58.7931
lradius 19.2272
lwrist -34.8097
lhand -19.6689 -12.4202
lfingers 7.12502
lthumb 6.65948 17.4551
rfemur -5.65515 24.4836 25.7161
rtibia 1.73709
rfoot -10.9948 -24.8298
rtoes 1.05511
lfemur 6.65269 -52.3673 -12.6318
ltibia -4.99193
lfoot -39.8593 59.6695
ltoes 23.1849
3
root 0.627751 17.4518 9.10484 10.7992 -3.16911 -9.93165
lowerback 0.423296 1.40428 7.66644
upperback -10.3508 2.61202 2.37963
thorax -11.1619 0.697509 -1.95427
lowerneck -8.77139 -7.00271 -5.1188
upperneck 21.4749 -10.2735 5.95342
head 8.71212 -4.71617 1.7757
rclavicle 1.71452e-014 -1.39149e-014
rhumerus -49.3828 -30.1183 -62.2915
rradius 24.594
rwrist 46.8931
rhand 3.68046 -29.2924
rfingers 7.12502
rthumb 29.1106 -57.0371
lclavicle 1.71452e-014 -1.39149e-014
lhumerus -52.0561 32.965 58.4143
lradius 19.4613
lwrist -34.6038
lhand -19.5888 -12.1599
lfingers 7.12502
lthumb 6.73674 17.7129
rfemur -5.61638 24.4401 25.7475
rtibia 1.67657
rfoot -10.9399 -24.7859
rtoes 0.76543
lfemur 6.67509 -52.3469 -12.6292
ltibia -4.9825
lfoot -39.7537 59.7017
ltoes 23.1114
4
root 0.62594 17.452 9.10432 10.7835 -3.17381 -9.99985
lowerback 0.473466 1.30551 7.65277
upperback -10.1283 2.48877 2.62396
thorax -10.9578 0.663977 -1.67392
lowerneck -9.77958 -6.94285 -5.46317
upperneck 21.7824 -10.1036 5.93655
head 9.01175 -4.63353 1.80657
rclavicle 9.19379e-016 2.85256e-014
rhumerus -48.5502 -29.7844 -62.672
rradius 24.4438
rwrist 46.7067
rhand 3.54701 -29.3249
rfingers 7.12502
rthumb 28.9831 -57.0916
lclavicle 9.19379e-016 2.85256e-014
lhumerus -52.0726 33.9536 58.1754
lradius 19.4358
lwrist -34.9208
lhand -19.588 -12.1462
lfingers 7.12502
lthumb 6.73757 17.7266
rfemur -5.55396 24.5319 25.8451
rtibia 1.61198
rfoot -10.9205 -24.8446
rtoes 0.783145
lfemur 6.69092 -52.2724 -12.5375
ltibia -5.00711
lfoot -39.6492 59.6735
ltoes 23.0103
5
root 0.619258 17.457 9.10379 10.9197 -3.25674 -9.71409
lowerback 0.355441 1.23182 7.16756
upperback -9.93237 2.3445 2.76673
thorax -10.6849 0.657698 -1.23837
lowerneck -10.9163 -6.90725 -5.7598
upperneck 22.1459 -9.97004 5.93956
head 9.35811 -4.55915 1.82964
rclavicle -5.8393e-016 1.6201e-014
rhumerus -47.5512 -29.5033 -63.1203
rradius 24.1593
rwrist 46.1377
rhand 3.66238 -29.6394
rfingers 7.12502
rthumb 29.0933 -57.3871
lclavicle -5.8393e-016 1.6201e-014
lhumerus -51.659 34.332 58.6392
lradius 19.4747
lwrist -34.4935
lhand -19.6208 -11.8788
lfingers 7.12502
lthumb 6.7059 17.995
rfemur -5.66778 25.2305 25.4484
rtibia 1.51167
rfoot -11.0298 -25.4523
rtoes 2.20973
lfemur 6.39293 -52.3925 -12.6187
ltibia -4.94209
lfoot -40.1143 59.6778
ltoes 23.2995
6
root 0.611765 17.4668 9.12201 11.3874 -3.15281 -9.61043
lowerback -0.486177 0.995787 6.84022
upperback -9.97195 1.96162 3.23781
thorax -10.2736 0.536698 -0.503451
lowerneck -11.1693 -6.69167 -6.88136
upperneck 22.398 -9.49519 6.17225
head 9.53404 -4.39629 2.1429
rclavicle -4.42296e-015 -3.62782e-015
rhumerus -46.5303 -28.2781 -63.4694
rradius 23.7188
rwrist 45.0649
rhand 4.00849 -30.3715
rfingers 7.12502
rthumb 29.4238 -58.0616
lclavicle -4.42296e-015 -3.62782e-015
lhumerus -51.9475 34.1797 59.5759
lradius 19.8815
lwrist -33.0759
lhand -19.5577 -11.1224
lfingers 7.12502
lthumb 6.76679 18.7494
rfemur -5.96796 26.067 25.1848
rtibia 1.26043
rfoot -11.1283 -26.35
rtoes 3.70733
lfemur 5.6442 -52.8026 -12.1328
ltibia -4.89384
lfoot -40.6749 59.8948
ltoes 23.4163
7
root 0.609128 17.4708 9.12946 11.5795 -3.17712 -9.46236
lowerback -0.824254 1.05899 6.67337
upperback -10.0189 2.00452 3.19863
thorax -10.1214 0.573804 -0.450973
lowerneck -11.2136 -6.72773 -7.10746
upperneck 22.4913 -9.55475 6.38048
head 9.60297 -4.4187 2.24204
rclavicle 2.95195e-014 -4.80065e-014
rhumerus -46.4875 -28.3586 -63.3847
rradius 23.5073
rwrist 44.696
rhand 4.2031 -30.7089
rfingers 7.12502
rthumb 29.6096 -58.3661
lclavicle 2.95195e-014 -4.80065e-014
lhumerus -51.6948 33.5085 60.2117
lradius 20.0636
lwrist -32.3435
lhand -19.5265 -10.5712
lfingers 7.12502
lthumb 6.79688 19.2997
rfemur -6.10373 26.5411 24.9271
rtibia 1.1426
rfoot -11.174 -26.8154
rtoes 4.28714
lfemur 5.41381 -53.2556 -12.1442
ltibia -4.84058
lfoot -41.489 60.1483
ltoes 23.766
8
root 0.609697 17.4716 9.12934 11.5649 -3.20467 -9.4741
lowerback -0.797233 1.09878 6.72105
upperback -10.0304 2.06293 3.18358
thorax -10.1463 0.59673 -0.498098
lowerneck -11.1653 -6.70524 -7.1749
upperneck 22.4839 -9.54111 6.50129
head 9.60011 -4.40653 2.29819
rclavicle 2.11209e-016 4.69132e-014
rhumerus -46.6372 -28.5414 -63.1964
rradius 23.4366
rwrist 44.8824
rhand 4.24782 -30.5692
rfingers 7.12502
rthumb 29.6523 -58.2189
lclavicle 2.11209e-016 4.69132e-014
lhumerus -51.738 33.4756 60.1243
lradius 20.0746
lwrist -32.3773
lhand -19.5637 -10.4579
lfingers 7.12502
lthumb 6.761 19.4142
rfemur -6.05069 26.5125 24.9385
rtibia 1.0555
rfoot -11.0886 -26.7644
rtoes 4.14696
lfemur 5.49986 -53.3974 -12.2064
ltibia -4.84718
lfoot -41.776 60.2406
ltoes 23.9768
9
root 0.60976 17.473 9.12756 11.5447 -3.21668 -9.47065
lowerback -0.763473 1.11872 6.72377
upperback -10.0309 2.09294 3.17625
thorax -10.1651 0.610329 -0.510311
lowerneck -11.1473 -6.64356 -7.06536
upperneck 22.5108 -9.47085 6.46735
head 9.59292 -4.36832 2.27861
rclavicle 4.67144e-015 -2.82274e-014
rhumerus -46.7464 -28.7107 -63.0293
rradius 23.3512
rwrist 45.0552
rhand 4.24777 -30.4573
rfingers 7.12502
rthumb 29.6522 -58.107
lclavicle 4.67144e-015 -2.82274e-014
lhumerus -51.8072 33.5442 59.9653
lradius 20.0614
lwrist -32.4531
lhand -19.6197 -10.6299
lfingers 7.12502
lthumb 6.70699 19.2439
rfemur -5.98314 26.3203 24.9378
rtibia 0.919894
rfoot -10.8446 -26.5953
rtoes 3.64427
lfemur 5.51065 -53.3558 -12.2134
ltibia -4.85134
lfoot -41.7575 60.2018
ltoes 23.9851
10
root 0.610699 17.479 9.11906 11.7056 -3.23221 -9.91704
lowerback -0.7436 1.24452 7.23548
upperback -10.099 2.2962 3.193
thorax -10.237 0.663445 -0.78908
lowerneck -11.1754 -6.6557 -6.79993
upperneck 22.5869 -9.51752 6.34802
head 9.60809 -4.37856 2.18716
rclavicle 2.99233e-014 -1.38404e-014
rhumerus -46.9527 -28.9917 -62.8839
rradius 23.3263
rwrist 45.1274
rhand 4.28102 -30.4936
rfingers 7.12502
rthumb 29.684 -58.1377
lclavicle 2.99233e-014 -1.38404e-014
lhumerus -51.6998 33.3433 59.9697
lradius 20.0426
lwrist -32.4042
lhand -19.592 -10.836
lfingers 7.12502
lthumb 6.73373 19.037
rfemur -6.24194 26.3861 25.3523
rtibia 1.00713
rfoot -10.6804 -26.5611
rtoes 3.32691
lfemur 5.08287 -53.0375 -11.2649
ltibia -4.93973
lfoot -41.486 60.0554
ltoes 23.9131
